# xmcd CD database file
#
# Track frame offsets:
#	150
#	24153
#	62677
#	85855
#	106122
#	128683
#	151348
#	173215
#	186192
#	231874
#	246991
#	262356
#	282970
#
# Disc length: 4083 seconds
#
# Revision: 0
# Processed by: cddbd v1.4PL0 Copyright (c) Steve Scherf et al.
# Submitted via: CDex 1.40Beta8
#
DISCID=ac0ff10d
DTITLE=BB King - Lucille And Friends
DYEAR=1995
DGENRE=Blues
TTITLE0=Playin' With My Friends
TTITLE1=To Know You Is To Love You
TTITLE2=Caught A Touch Of Your Love
TTITLE3=All You Ever Give Me Is The Blues
TTITLE4=You Shook Me
TTITLE5=Spirit In The Dark
TTITLE6=Can't Get Enough
TTITLE7=Since I Met You Baby
TTITLE8=BB's Blues
TTITLE9=Better Not Look Down
TTITLE10=Frosty
TTITLE11=Hummingbird
TTITLE12=Ghetto Woman
EXTD=YEAR: 1995 ID3G: 0
EXTT0=
EXTT1=
EXTT2=
EXTT3=
EXTT4=
EXTT5=
EXTT6=
EXTT7=
EXTT8=
EXTT9=
EXTT10=
EXTT11=
EXTT12=
PLAYORDER=
